<svg width="24.000000" height="24.000000" viewBox="0 0 24 24" fill="none" xmlns="http://www.w3.org/2000/svg" xmlns:xlink="http://www.w3.org/1999/xlink">
<rect rx="0.000000" width="23.000000" height="23.000000" transform="translate(0.500000 0.500000)" fill="#FFFFFF" fill-opacity="0"/>
<path d="M14.35 2.5C18.05 2.91 20.97 5.83 21.39 9.53" stroke="#363853" stroke-opacity="1.000000" stroke-width="1.500000" stroke-linejoin="round" stroke-linecap="round"/>
<path d="M14.35 6.04C16.12 6.38 17.5 7.77 17.85 9.54" stroke="#363853" stroke-opacity="1.000000" stroke-width="1.500000" stroke-linejoin="round" stroke-linecap="round"/>
<path d="M18.46 14.38C20.91 16.83 22.32 17.32 19.21 20.42C18.83 20.73 16.36 24.49 7.68 15.81C-1 7.14 2.76 4.67 3.07 4.28C6.18 1.17 6.66 2.58 9.11 5.03C11.65 7.57 7.04 8.48 11.03 12.47C15.02 16.46 15.92 11.84 18.46 14.38Z" stroke="#363853" stroke-opacity="1.000000" stroke-width="1.500000" stroke-linejoin="round"/>
</svg>
