<svg width="20" height="20" viewBox="0 0 20 20" fill="none" xmlns="http://www.w3.org/2000/svg">
<path d="M10.8134 2.72233L12.6688 6.40761C12.8055 6.67461 13.0664 6.86002 13.3673 6.90123L17.5348 7.50116C17.7782 7.53494 17.9991 7.66185 18.1483 7.85551C18.2958 8.0467 18.3592 8.28898 18.3233 8.52713C18.2942 8.72491 18.2 8.90786 18.0558 9.04795L15.036 11.9413C14.8151 12.1432 14.7151 12.4423 14.7684 12.7349L15.5119 16.8025C15.5911 17.2937 15.2619 17.7568 14.7684 17.8499C14.565 17.8821 14.3567 17.8483 14.1733 17.756L10.4558 15.8417C10.1799 15.704 9.85403 15.704 9.57814 15.8417L5.86067 17.756C5.40391 17.9958 4.83796 17.8326 4.58373 17.3876C4.48955 17.2104 4.45621 17.0085 4.48705 16.8116L5.23054 12.7431C5.28388 12.4514 5.18303 12.1506 4.96298 11.9487L1.94317 9.05702C1.58392 8.7142 1.57309 8.14971 1.919 7.79453C1.9265 7.78711 1.93483 7.77887 1.94317 7.77063C2.08653 7.62642 2.27491 7.53494 2.47828 7.51105L6.64584 6.91029C6.94591 6.86826 7.2068 6.6845 7.34433 6.41585L9.13304 2.72233C9.29224 2.40588 9.62232 2.20893 9.98073 2.21717H10.0924C10.4033 2.25425 10.6742 2.44461 10.8134 2.72233Z" fill="#FAC412"/>
<path d="M9.99316 15.739C9.83175 15.744 9.67449 15.7868 9.53304 15.8635L5.83375 17.7735C5.38112 17.987 4.83946 17.8213 4.58568 17.3935C4.49166 17.2187 4.45755 17.0184 4.48916 16.8222L5.22802 12.7624C5.27795 12.4672 5.1781 12.1672 4.96094 11.9595L1.93977 9.06851C1.58115 8.72146 1.5745 8.15185 1.92562 7.79656C1.93062 7.79161 1.93478 7.78749 1.93977 7.78337C2.08288 7.64323 2.26759 7.55091 2.46645 7.52206L6.63751 6.91535C6.93955 6.87743 7.20164 6.69113 7.33477 6.42074L9.1478 2.68074C9.32004 2.37903 9.65036 2.19932 9.99982 2.21828C9.99316 2.46311 9.99316 15.5725 9.99316 15.739Z" fill="#FAC412"/>
</svg>
