<svg width="23.000000" height="19.000000" viewBox="0 0 23 19" fill="none" xmlns="http://www.w3.org/2000/svg" xmlns:xlink="http://www.w3.org/1999/xlink">
	<desc>
			Created with Pixso.
	</desc>
	<defs/>
	<mask id="mask74_44" mask-type="alpha" maskUnits="userSpaceOnUse" x="0.000000" y="0.000000" width="23.000000" height="19.000000">
		<rect id="Прямоугольник 3" width="23.000000" height="19.000000" fill="#C4C4C4" fill-opacity="1.000000"/>
	</mask>
	<g mask="url(#mask74_44)">
		<path id="“" d="M7.62 9.7Q6.72 9.11 5.51 8.99Q5.87 7 6.86 5.4Q7.41 4.49 8.16 3.71Q8.5 3.37 8.65 2.95Q8.79 2.6 8.79 2.19Q8.79 1.89 8.7 1.62Q8.55 1.17 8.14 0.8Q7.84 0.51 7.48 0.36Q7.09 0.2 6.64 0.2Q6.28 0.2 5.95 0.3Q5.33 0.48 4.8 1Q2.91 3.07 1.9 5.51Q0.72 8.33 0.72 11.64Q0.72 14.83 1.95 16.35Q2.49 17.01 3.19 17.38Q4.1 17.87 5.27 17.87Q6.4 17.87 7.28 17.41Q7.84 17.12 8.3 16.64Q8.62 16.31 8.86 15.92Q9.51 14.86 9.51 13.4Q9.51 12.04 8.91 11.04Q8.69 10.67 8.4 10.35Q8.04 9.97 7.62 9.7ZM20.9 9.7Q20 9.11 18.79 8.99Q19.15 7 20.14 5.4Q20.69 4.49 21.44 3.71Q21.78 3.37 21.94 2.95Q22.07 2.6 22.07 2.19Q22.07 1.89 21.98 1.62Q21.83 1.17 21.42 0.8Q21.12 0.51 20.76 0.36Q20.38 0.2 19.92 0.2Q19.56 0.2 19.23 0.3Q18.61 0.48 18.08 1Q16.19 3.07 15.18 5.51Q14 8.33 14 11.64Q14 14.83 15.23 16.35Q15.77 17.01 16.47 17.38Q17.38 17.87 18.55 17.87Q19.68 17.87 20.56 17.41Q21.12 17.12 21.58 16.64Q21.9 16.31 22.14 15.92Q22.79 14.86 22.79 13.4Q22.79 12.04 22.19 11.04Q21.98 10.67 21.68 10.35Q21.32 9.97 20.9 9.7Z" fill="#DDDDDD" fill-opacity="1.000000" fill-rule="evenodd"/>
	</g>
</svg>
