<svg width="23.000000" height="19.000000" viewBox="0 0 23 19" fill="none" xmlns="http://www.w3.org/2000/svg" xmlns:xlink="http://www.w3.org/1999/xlink">
	<desc>
			Created with Pixso.
	</desc>
	<defs/>
	<mask id="mask74_49" mask-type="alpha" maskUnits="userSpaceOnUse" x="0.000000" y="0.000000" width="23.000000" height="19.000000">
		<rect id="Прямоугольник 3" width="23.000000" height="19.000000" transform="matrix(-1 -0 0 1 23 0)" fill="#C4C4C4" fill-opacity="1.000000"/>
	</mask>
	<g mask="url(#mask74_49)">
		<path id="“" d="M15.37 9.7Q16.27 9.11 17.48 8.99Q17.12 7 16.13 5.4Q15.58 4.49 14.83 3.71Q14.49 3.37 14.34 2.95Q14.2 2.6 14.2 2.19Q14.2 1.89 14.29 1.62Q14.44 1.17 14.85 0.8Q15.15 0.51 15.51 0.36Q15.9 0.2 16.35 0.2Q16.71 0.2 17.04 0.3Q17.66 0.48 18.19 1Q20.08 3.07 21.09 5.51Q22.27 8.33 22.27 11.64Q22.27 14.83 21.04 16.35Q20.5 17.01 19.8 17.38Q18.89 17.87 17.72 17.87Q16.59 17.87 15.71 17.41Q15.15 17.12 14.69 16.64Q14.37 16.31 14.13 15.92Q13.48 14.86 13.48 13.4Q13.48 12.04 14.08 11.04Q14.3 10.67 14.59 10.35Q14.95 9.97 15.37 9.7ZM2.09 9.7Q2.99 9.11 4.2 8.99Q3.84 7 2.85 5.4Q2.3 4.49 1.55 3.71Q1.21 3.37 1.05 2.95Q0.92 2.6 0.92 2.19Q0.92 1.89 1.01 1.62Q1.16 1.17 1.57 0.8Q1.87 0.51 2.23 0.36Q2.61 0.2 3.07 0.2Q3.43 0.2 3.76 0.3Q4.38 0.48 4.91 1Q6.8 3.07 7.81 5.51Q8.99 8.33 8.99 11.64Q8.99 14.83 7.76 16.35Q7.22 17.01 6.52 17.38Q5.61 17.87 4.44 17.87Q3.31 17.87 2.43 17.41Q1.87 17.12 1.41 16.64Q1.09 16.31 0.85 15.92Q0.2 14.86 0.2 13.4Q0.2 12.04 0.8 11.04Q1.01 10.67 1.31 10.35Q1.67 9.97 2.09 9.7Z" fill="#DDDDDD" fill-opacity="1.000000" fill-rule="evenodd"/>
	</g>
</svg>
