<svg width="120.000000" height="40.000000" viewBox="0 0 120 40" fill="none" xmlns="http://www.w3.org/2000/svg" xmlns:xlink="http://www.w3.org/1999/xlink">
	<defs/>
	<g style="mix-blend-mode:normal">
		<rect id="Store=App Store, Style=Black" rx="6.500000" width="119.000000" height="39.000000" transform="translate(0.500000 0.500000)" fill="#0C0D10" fill-opacity="1.000000"/>
		<path id="App Store" d="M74.56 30.79C71.8 30.79 69.95 29.37 69.82 27.15L71.73 27.15C71.89 28.33 73.04 29.07 74.7 29.07C76.25 29.07 77.39 28.27 77.39 27.17C77.39 26.23 76.67 25.66 75.02 25.27L73.42 24.88C71.18 24.36 70.15 23.28 70.15 21.45C70.15 19.24 71.96 17.77 74.67 17.77C77.19 17.77 79.03 19.24 79.14 21.33L77.27 21.33C77.09 20.19 76.09 19.47 74.64 19.47C73.12 19.47 72.11 20.2 72.11 21.32C72.11 22.21 72.76 22.72 74.38 23.09L75.75 23.43C78.29 24.02 79.34 25.06 79.34 26.92C79.34 29.3 77.5 30.79 74.56 30.79ZM45.49 30.48L43.44 30.48L42.3 27.19L37.57 27.19L36.43 30.48L34.45 30.48L38.93 18.07L41 18.07L45.49 30.48ZM81.52 21.49L81.52 19.2L83.31 19.2L83.31 21.49L85.26 21.49L85.26 22.99L83.31 22.99L83.31 27.64C83.31 28.58 83.7 29 84.58 29C84.86 29 85.02 28.98 85.26 28.96L85.26 30.44C84.97 30.49 84.64 30.53 84.29 30.53C82.31 30.53 81.52 29.84 81.52 28.09L81.52 22.99L80.08 22.99L80.08 21.49L81.52 21.49ZM40.01 20.32L39.87 20.32L38.06 25.57L41.81 25.57L40.01 20.32ZM94.58 25.96C94.58 28.89 92.96 30.66 90.32 30.66C87.67 30.66 86.05 28.89 86.05 25.96C86.05 23.05 87.68 21.27 90.32 21.27C92.95 21.27 94.58 23.05 94.58 25.96ZM105.55 29.14C106.63 29.14 107.37 28.75 107.7 28.04L109.42 28.04C109.01 29.66 107.57 30.66 105.5 30.66C102.91 30.66 101.32 28.88 101.32 25.99C101.32 23.11 102.94 21.27 105.49 21.27C108.01 21.27 109.52 22.99 109.52 25.83L109.52 26.45L103.14 26.45L103.14 26.55C103.2 28.14 104.12 29.14 105.55 29.14ZM48.49 22.94C49.04 21.91 50.1 21.3 51.33 21.3C53.63 21.3 55.08 23.09 55.08 25.96C55.08 28.83 53.63 30.63 51.35 30.63C50.06 30.63 49.04 30.07 48.57 29.12L48.42 29.12L48.42 33.49L46.64 33.49L46.64 21.45L48.36 21.45L48.36 22.94L48.49 22.94ZM58.49 22.94C59.04 21.91 60.1 21.3 61.33 21.3C63.63 21.3 65.08 23.09 65.08 25.96C65.08 28.83 63.63 30.63 61.34 30.63C60.06 30.63 59.04 30.07 58.56 29.12L58.42 29.12L58.42 33.49L56.64 33.49L56.64 21.45L58.36 21.45L58.36 22.94L58.49 22.94ZM97.75 30.48L95.96 30.48L95.96 21.45L97.68 21.45L97.68 22.83L97.81 22.83C98.07 21.94 99.07 21.3 100.25 21.3C100.52 21.3 100.86 21.32 101.05 21.37L101.05 23.13C100.9 23.08 100.37 23.02 100.05 23.02C98.7 23.02 97.75 23.88 97.75 25.15L97.75 30.48ZM107.71 25.13C107.66 23.71 106.8 22.79 105.48 22.79C104.16 22.79 103.24 23.72 103.14 25.13L107.71 25.13ZM87.89 25.96C87.89 27.94 88.77 29.07 90.32 29.07C91.86 29.07 92.74 27.93 92.74 25.96C92.74 24 91.86 22.86 90.32 22.86C88.77 22.86 87.89 24 87.89 25.96ZM48.39 25.97C48.39 27.85 49.33 29.03 50.82 29.03C52.34 29.03 53.25 27.88 53.25 25.96C53.25 24.05 52.34 22.9 50.83 22.9C49.33 22.9 48.39 24.08 48.39 25.97ZM58.39 25.97C58.39 27.85 59.33 29.03 60.82 29.03C62.34 29.03 63.24 27.88 63.24 25.96C63.24 24.05 62.34 22.9 60.83 22.9C59.33 22.9 58.39 24.08 58.39 25.97Z" fill="#FFFFFF" fill-opacity="1.000000" fill-rule="evenodd"/>
		<path id="Download on the" d="M59.09 14.7L59.98 14.7L59.98 8.41L59.09 8.41L59.09 14.7ZM73.21 14.77C73.83 14.77 74.36 14.48 74.63 13.98L74.7 13.98L74.7 14.7L75.55 14.7L75.55 8.41L74.66 8.41L74.66 10.89L74.59 10.89C74.35 10.4 73.83 10.1 73.21 10.1C72.07 10.1 71.33 11.01 71.33 12.43C71.33 13.86 72.06 14.77 73.21 14.77ZM95.67 14.7L96.56 14.7L96.56 12.06C96.56 11.37 96.97 10.91 97.7 10.91C98.33 10.91 98.66 11.28 98.66 12L98.66 14.7L99.56 14.7L99.56 11.78C99.56 10.7 98.96 10.09 98 10.09C97.32 10.09 96.84 10.4 96.62 10.9L96.55 10.9L96.55 8.41L95.67 8.41L95.67 14.7ZM35.65 8.71L35.65 14.7L37.81 14.7C39.59 14.7 40.63 13.6 40.63 11.68C40.63 9.8 39.58 8.71 37.81 8.71L35.65 8.71ZM92.6 9.05L92.6 10.2L91.88 10.2L91.88 10.95L92.6 10.95L92.6 13.5C92.6 14.37 92.99 14.72 93.98 14.72C94.16 14.72 94.33 14.7 94.47 14.67L94.47 13.93C94.35 13.94 94.27 13.95 94.13 13.95C93.69 13.95 93.49 13.74 93.49 13.27L93.49 10.95L94.47 10.95L94.47 10.2L93.49 10.2L93.49 9.05L92.6 9.05ZM36.58 9.55L37.7 9.55C38.95 9.55 39.68 10.34 39.68 11.69C39.68 13.07 38.96 13.85 37.7 13.85L36.58 13.85L36.58 9.55ZM43.79 14.78C45.11 14.78 45.92 13.9 45.92 12.43C45.92 10.98 45.11 10.09 43.79 10.09C42.47 10.09 41.66 10.98 41.66 12.43C41.66 13.9 42.47 14.78 43.79 14.78ZM53.84 14.7L54.73 14.7L54.73 12.05C54.73 11.35 55.15 10.91 55.81 10.91C56.47 10.91 56.79 11.27 56.79 11.99L56.79 14.7L57.68 14.7L57.68 11.77C57.68 10.69 57.12 10.09 56.12 10.09C55.43 10.09 54.99 10.39 54.77 10.89L54.7 10.89L54.7 10.18L53.84 10.18L53.84 14.7ZM63.33 14.78C64.65 14.78 65.46 13.9 65.46 12.43C65.46 10.98 64.65 10.09 63.33 10.09C62.01 10.09 61.2 10.98 61.2 12.43C61.2 13.9 62.01 14.78 63.33 14.78ZM67.89 14.77C68.49 14.77 68.98 14.51 69.25 14.06L69.32 14.06L69.32 14.7L70.18 14.7L70.18 11.61C70.18 10.65 69.54 10.09 68.41 10.09C67.38 10.09 66.65 10.59 66.56 11.36L67.42 11.36C67.52 11.04 67.87 10.86 68.37 10.86C68.98 10.86 69.29 11.13 69.29 11.61L69.29 12L68.07 12.07C66.99 12.13 66.39 12.6 66.39 13.42C66.39 14.24 67.02 14.77 67.89 14.77ZM81.34 14.78C82.66 14.78 83.47 13.9 83.47 12.43C83.47 10.98 82.66 10.09 81.34 10.09C80.02 10.09 79.21 10.98 79.21 12.43C79.21 13.9 80.02 14.78 81.34 14.78ZM84.65 14.7L85.54 14.7L85.54 12.05C85.54 11.35 85.96 10.91 86.62 10.91C87.28 10.91 87.6 11.27 87.6 11.99L87.6 14.7L88.49 14.7L88.49 11.77C88.49 10.69 87.93 10.09 86.92 10.09C86.24 10.09 85.8 10.39 85.58 10.89L85.51 10.89L85.51 10.18L84.65 10.18L84.65 14.7ZM103.88 13.47C103.72 13.83 103.35 14.02 102.81 14.02C102.1 14.02 101.64 13.52 101.61 12.73L101.61 12.68L104.8 12.68L104.8 12.37C104.8 10.95 104.04 10.09 102.78 10.09C101.51 10.09 100.7 11.01 100.7 12.45C100.7 13.89 101.49 14.78 102.78 14.78C103.82 14.78 104.54 14.28 104.74 13.47L103.88 13.47ZM52.81 10.18L51.92 10.18L51.12 13.62L51.04 13.62L50.12 10.18L49.26 10.18L48.33 13.62L48.26 13.62L47.45 10.18L46.55 10.18L47.8 14.7L48.71 14.7L49.64 11.37L49.71 11.37L50.65 14.7L51.57 14.7L52.81 10.18ZM102.78 10.85C103.44 10.85 103.87 11.31 103.89 12.02L101.61 12.02C101.66 11.31 102.12 10.85 102.78 10.85ZM43.79 13.99C43.02 13.99 42.58 13.42 42.58 12.43C42.58 11.45 43.02 10.88 43.79 10.88C44.56 10.88 45 11.45 45 12.43C45 13.42 44.56 13.99 43.79 13.99ZM63.33 13.99C62.56 13.99 62.12 13.42 62.12 12.43C62.12 11.45 62.56 10.88 63.33 10.88C64.11 10.88 64.55 11.45 64.55 12.43C64.55 13.42 64.11 13.99 63.33 13.99ZM81.34 13.99C80.56 13.99 80.13 13.42 80.13 12.43C80.13 11.45 80.56 10.88 81.34 10.88C82.11 10.88 82.55 11.45 82.55 12.43C82.55 13.42 82.11 13.99 81.34 13.99ZM73.46 10.9C74.21 10.9 74.68 11.5 74.68 12.44C74.68 13.38 74.21 13.97 73.46 13.97C72.71 13.97 72.25 13.39 72.25 12.43C72.25 11.48 72.71 10.9 73.46 10.9ZM68.12 14.02C67.64 14.02 67.28 13.78 67.28 13.38C67.28 12.98 67.57 12.77 68.19 12.72L69.29 12.65L69.29 13.03C69.29 13.59 68.79 14.02 68.12 14.02Z" fill="#FFFFFF" fill-opacity="1.000000" fill-rule="evenodd"/>
		<path id="Apple logo" d="M23.15 8.72C23.24 9.98 22.84 11.23 22.03 12.21C21.26 13.17 20.04 13.75 18.8 13.74C18.72 12.52 19.14 11.29 19.94 10.38C20.76 9.44 21.91 8.85 23.15 8.72ZM27.12 16.14C25.69 17.02 24.79 18.61 24.76 20.3C24.77 22.2 25.93 23.96 27.68 24.7C27.34 25.8 26.83 26.84 26.16 27.79C25.27 29.13 24.33 30.43 22.84 30.46C22.14 30.47 21.66 30.27 21.16 30.06C20.64 29.84 20.1 29.61 19.25 29.61C17.58 29.61 17.06 30.43 15.67 30.49C14.26 30.54 13.17 29.06 12.25 27.74C10.39 25.03 8.95 20.11 10.89 16.76C11.78 15.14 13.51 14.09 15.36 14.03C16.16 14.02 16.93 14.33 17.61 14.6C18.13 14.81 18.59 14.99 18.97 14.99C19.3 14.99 19.75 14.81 20.27 14.61C21.09 14.28 22.1 13.88 23.13 13.99C24.7 14.04 26.22 14.85 27.12 16.14Z" fill="#FFFFFF" fill-opacity="1.000000" fill-rule="evenodd"/>
		<rect id="Store=App Store, Style=Black" rx="6.500000" width="119.000000" height="39.000000" transform="translate(0.500000 0.500000)" stroke="#A6A6A6" stroke-opacity="1.000000" stroke-width="1.000000"/>
	</g>
</svg>
